PathFileType	4	(X/Y/Z)	RBDS020\RBDS020runT45.trc
DataRate	CameraRate	NumFrames	NumMarkers	Units	OrigDataRate	OrigDataStartFrame	OrigNumFrames
150.000000	150.000000	4	33	mm	150.000000	1687	4500
Frame#	Time	L.ASIS			L.Heel.Bottom			L.Heel.Lateral			L.Heel.Top			L.Iliac.Crest			L.MT1			L.MT5			L.PSIS			L.Shank.Bottom.Lateral			L.Shank.Bottom.Medial			L.Shank.Top.Lateral			L.Shank.Top.Medial			L.Thigh.Bottom.Lateral			L.Thigh.Bottom.Medial			L.Thigh.Top.Lateral			L.Thigh.Top.Medial			R.ASIS			R.ASY			R.Heel.Bottom			R.Heel.Lateral			R.Heel.Top			R.Iliac.Crest			R.MT1			R.MT5			R.PSIS			R.Shank.Bottom.Lateral			R.Shank.Bottom.Medial			R.Shank.Top.Lateral			R.Shank.Top.Medial			R.Thigh.Bottom.Lateral			R.Thigh.Bottom.Medial			R.Thigh.Top.Lateral			R.Thigh.Top.Medial			
		X1	Y1	Z1	X2	Y2	Z2	X3	Y3	Z3	X4	Y4	Z4	X5	Y5	Z5	X6	Y6	Z6	X7	Y7	Z7	X8	Y8	Z8	X9	Y9	Z9	X10	Y10	Z10	X11	Y11	Z11	X12	Y12	Z12	X13	Y13	Z13	X14	Y14	Z14	X15	Y15	Z15	X16	Y16	Z16	X17	Y17	Z17	X18	Y18	Z18	X19	Y19	Z19	X20	Y20	Z20	X21	Y21	Z21	X22	Y22	Z22	X23	Y23	Z23	X24	Y24	Z24	X25	Y25	Z25	X26	Y26	Z26	X27	Y27	Z27	X28	Y28	Z28	X29	Y29	Z29	X30	Y30	Z30	X31	Y31	Z31	X32	Y32	Z32	X33	Y33	Z33	

1688	11.24666666666667	2261.81922690292	1030.921344543861	918.3310453011466	2438.219607948341	41.99394330368933	982.1794345968642	2450.389678833795	68.47552413577638	936.3992089624379	2428.340629184879	89.41579429045292	978.9783233507213	2207.628613308022	1084.078704432997	871.9917488675346	2637.631972435552	139.9105393408729	997.3053774554215	2604.250821472574	108.6007901632955	894.7572765966326	2110.052168685316	1074.330133329728	965.4593032792211	2458.470638949031	210.0122157258289	908.1208311357702	2418.347097379661	204.9025113544402	946.3418661155875	2431.375925744642	284.0713348020628	891.0034082172431	2393.091335364569	280.0922807280507	928.9714466031947	2316.377749194666	703.476397042707	843.316247283409	2262.751415672973	672.8740194677464	881.9916571016455	2257.292737840972	794.8702327559972	832.7705567761479	2205.60968156117	765.7162029764353	869.3653568674137	2261.188737549548	1002.255512278876	1138.366308776202	1601.913887271182	264.7045001985142	1083.94589697864	1521.134526701059	437.6354416515017	1041.250300327513	1533.516758908861	419.2376474471071	1090.398134860881	1563.326438173189	437.7371988279109	1048.83410375636	2227.951572262177	1068.445104948097	1158.607866759865	1575.525233857128	230.7385458046156	1034.806465129121	1542.604612614618	259.3671222798459	1134.789444994805	2110.774894513792	1074.461906166331	1063.842181116286	1675.005168161851	419.2048741568725	1125.382743891938	1664.336627183568	456.8455625330916	1092.171885965154	1748.638664493068	457.7802578285762	1142.261975660866	1732.567772876624	496.698060341721	1109.706368794632	2028.833161102464	677.7785727902705	1167.543000061572	1984.877625216142	696.5947556654475	1114.8274135661	2060.342407967725	783.5393094043452	1176.442611662953	2019.542764875861	800.4011457429215	1124.391982637152	
1689	11.25333333333333	2261.2178944906	1030.21279550955	917.5725189748663	2447.043208980131	36.81393960026033	982.5515424734314	2458.114768353035	63.55571090597498	936.6993157889103	2435.343558669355	84.02348639591641	979.1451186858999	2205.733556182504	1082.592460294482	872.0512245771029	2643.273696348913	142.5637097232173	997.067436593749	2610.903012481115	109.0594440022395	894.7719974234416	2109.049736940263	1071.705093994473	967.039184991959	2461.237393460744	206.0845570550679	908.0752826103877	2421.433910306127	199.8222535637332	946.5978407274757	2431.859221347448	279.4379668196615	891.0587962084678	2393.869540632064	274.3417117774151	929.3140320666582	2311.59574719549	699.5523385598231	842.708258698493	2257.917868536473	670.1371805002896	882.2259923327293	2253.905318990817	791.9484550576668	832.2869202481751	2202.302785622035	763.9689554325522	869.8097792849049	2261.744054899129	1000.511027227178	1138.351438631968	1596.646780502635	280.4664882107497	1083.045090862521	1525.223025269054	456.6744590555074	1039.166092537076	1536.641002447672	438.1978568709642	1088.391202651678	1567.282247819968	454.6462223196634	1046.750967031888	2227.64103633183	1066.666914879799	1159.292653448345	1568.445344975844	247.5979622812512	1034.032138493626	1537.423427445887	278.9220347257782	1133.951597334614	2110.57726044229	1071.085795506915	1065.59523341612	1677.417724438997	430.2330138938531	1124.124848328993	1668.840163899668	468.5501771684952	1090.989520430884	1752.95415710315	464.7616933262823	1141.532259281671	1739.110241027065	504.6442917688873	1109.073360086714	2035.257336493622	671.3189601247162	1168.393566846793	1990.592790064665	689.4445909832662	1116.003216339791	2064.758603512102	777.6598244564976	1177.41818050912	2023.053882654864	793.9659655109618	1125.800135374678	
1690	11.26	2260.60940104156	1029.144086749902	916.6566155962374	2450.887902837439	32.42362902914419	983.3059077981221	2461.153228391721	59.19656951892147	937.3444792606375	2438.161287332149	79.43699678460146	979.731787233553	2203.702334277219	1080.638899455904	872.0545209864605	2644.995653450441	142.8107742397571	996.6775404664467	2612.986034759849	107.730050452552	894.7663319764787	2108.041949005023	1068.574734991047	968.6322498969193	2461.009091047093	201.8405591927374	908.228056862461	2421.558951322983	194.8451084473319	947.1073359893526	2430.068547852248	274.6933267667158	891.2895944474296	2392.423769190052	268.8935000680918	929.8825460791556	2307.166798863038	695.6865668815087	842.4276701077149	2253.377545906402	667.3091517404566	882.5115929795868	2250.699308225156	788.9508738461075	831.9881152605254	2199.168539475266	762.0240198385483	870.2331825514281	2262.319431952041	998.322059083766	1138.237996979164	1593.81811192498	295.4386367645917	1082.219898438822	1532.097189990287	474.5525527115883	1036.707191201308	1542.38753153946	456.0663840574658	1086.045025923617	1573.910386047962	470.3855307727461	1044.473960346831	2227.521809780522	1064.289250055856	1159.951733902634	1563.961205838475	263.6763063341426	1033.326750788535	1534.727512844808	297.7713230165706	1132.982149835752	2110.442547135061	1067.113264897233	1067.347969158217	1681.907595285514	440.4169429928169	1122.849294416247	1675.45702248078	479.1443506721424	1089.632241457414	1759.043992206796	470.9515194401868	1140.786429428492	1747.45922945907	511.5261486989386	1108.282914370799	2041.928816516291	664.3844346646677	1169.170291312319	1996.671714589773	681.648202389614	1116.966973406673	2069.202212161982	771.3328823290334	1178.203710378645	2026.76758727321	786.894123512731	1126.872158417905	
1691	11.26666666666667	2260.00288508556	1027.677375865875	915.6046674258811	2449.646499418272	28.76812777661484	984.4147441592576	2459.463838663884	55.34858295394059	938.3199040570398	2436.750627992617	75.62338019076586	980.728559257728	2201.630028025813	1078.210632248877	872.0031383196692	2642.89543739247	140.3983051964117	996.2183580712082	2610.561531267869	104.449025722589	894.7766687616324	2107.040733965885	1065.01487239	970.1789734923642	2457.895302062657	197.1988436472781	908.5875167965576	2418.780331083029	189.9087667104875	947.8372081760474	2426.145321182943	269.78893372026	891.6738387271554	2388.840662913733	263.7209694223963	930.6150555653012	2303.154907698425	691.8955443539054	842.4460155267939	2249.183367762714	664.3820294917741	882.8134564787928	2247.70047156331	785.8726922064344	831.8481701547855	2196.218637435147	759.8538624176283	870.6076667052171	2262.88866828389	995.7189484922078	1138.003850703165	1593.472500178212	309.4500540846748	1081.511947071438	1541.604708718802	491.016497778864	1033.882093854089	1550.620026893567	472.6057331868741	1083.374482560651	1583.066853072067	484.745660076576	1042.006076561352	2227.594691388377	1061.370892087055	1160.55574324334	1562.152810670494	278.7556648062181	1032.760151550065	1534.554042052651	315.6748462180569	1131.923396534292	2110.361845026882	1062.671395802765	1069.034531251496	1688.421001375923	449.6524316527622	1121.574541253992	1684.107876354156	488.5199445837995	1088.125524238246	1766.861954914057	476.2913914427854	1140.039217304794	1757.539459716409	517.2786282318195	1107.348497053346	2048.839946247215	657.0504714445277	1169.890176084595	2003.10043676836	673.2767903706556	1117.749129059545	2073.664054762756	764.6185192687351	1178.815930134905	2030.666628663195	779.243265130134	1127.63554584895	
